<svg xmlns="http://www.w3.org/2000/svg" viewBox="0 0 120 32" width="120" height="32">
  <!-- Microsoft + GitHub logo combo for Blueprint navbar -->
  <!-- Microsoft 4-square logo -->
  <rect x="0" y="1" width="13" height="13" rx="1.5" fill="#F25022"/>
  <rect x="15" y="1" width="13" height="13" rx="1.5" fill="#7FBA00"/>
  <rect x="0" y="16" width="13" height="13" rx="1.5" fill="#00A4EF"/>
  <rect x="15" y="16" width="13" height="13" rx="1.5" fill="#FFB900"/>
  <!-- Divider -->
  <rect x="36" y="6" width="1" height="20" rx="0.5" fill="#E1E1E1"/>
  <!-- GitHub Octocat simplified -->
  <circle cx="50" cy="16" r="11" fill="#24292E"/>
  <path d="M50 7 C44 7 39 12 39 18 C39 22.5 41.8 26.3 45.8 27.5 C46.3 27.6 46.5 27.3 46.5 27 L46.5 25.3 C43.5 26 43 23.7 43 23.7 C42.5 22.5 41.8 22.2 41.8 22.2 C40.8 21.5 41.9 21.5 41.9 21.5 C43 21.6 43.6 22.6 43.6 22.6 C44.6 24.2 46.2 23.7 46.5 23.4 C46.6 22.7 46.9 22.2 47.2 22 C44.8 21.7 42.3 20.8 42.3 16.8 C42.3 15.7 42.7 14.8 43.6 14 C43.5 13.8 43.1 12.7 43.7 11.3 C43.7 11.3 44.6 11 46.5 12.3 C47.3 12.1 48.2 12 49 12 C49.8 12 50.7 12.1 51.5 12.3 C53.4 11 54.3 11.3 54.3 11.3 C54.9 12.7 54.5 13.8 54.4 14 C55.2 14.8 55.7 15.7 55.7 16.8 C55.7 20.8 53.2 21.7 50.8 22 C51.2 22.3 51.5 22.9 51.5 23.8 L51.5 27 C51.5 27.3 51.7 27.6 52.2 27.5 C56.2 26.3 59 22.5 59 18 C59 12 54 7 50 7Z" fill="white"/>
</svg>
